<?xml version="1.0" encoding="UTF-8" standalone="no"?>
<!DOCTYPE svg PUBLIC "-//W3C//DTD SVG 1.1//EN"
 "http://www.w3.org/Graphics/SVG/1.1/DTD/svg11.dtd">
<!-- Generated by graphviz version 2.43.0 (0)
 -->
<!-- Title: %3 Pages: 1 -->
<svg width="312pt" height="404pt"
 viewBox="0.00 0.00 312.00 404.00" xmlns="http://www.w3.org/2000/svg" xmlns:xlink="http://www.w3.org/1999/xlink">
<g id="graph0" class="graph" transform="scale(1 1) rotate(0) translate(4 400)">
<title>%3</title>
<polygon fill="#fff8f0" stroke="transparent" points="-4,4 -4,-400 308,-400 308,4 -4,4"/>
<!-- A -->
<g id="node1" class="node">
<title>A</title>
<polygon fill="#e63946" stroke="#333333" points="179,-396 125,-396 125,-360 179,-360 179,-396"/>
<text text-anchor="middle" x="152" y="-374.9" font-family="Helvetica,sans-Serif" font-size="12.00" fill="#ffffff">Home</text>
</g>
<!-- B -->
<g id="node2" class="node">
<title>B</title>
<polygon fill="#f77f00" stroke="#333333" points="193.5,-324 110.5,-324 110.5,-288 193.5,-288 193.5,-324"/>
<text text-anchor="middle" x="152" y="-302.9" font-family="Helvetica,sans-Serif" font-size="12.00" fill="#ffffff">Pizza Menu</text>
</g>
<!-- A&#45;&gt;B -->
<g id="edge1" class="edge">
<title>A&#45;&gt;B</title>
<path fill="none" stroke="#6c757d" d="M152,-359.7C152,-351.98 152,-342.71 152,-334.11"/>
<polygon fill="#6c757d" stroke="#6c757d" points="155.5,-334.1 152,-324.1 148.5,-334.1 155.5,-334.1"/>
</g>
<!-- C -->
<g id="node3" class="node">
<title>C</title>
<polygon fill="#fcbf49" stroke="#333333" points="234,-252 70,-252 70,-216 234,-216 234,-252"/>
<text text-anchor="middle" x="152" y="-230.9" font-family="Helvetica,sans-Serif" font-size="12.00" fill="#ffffff">Pizza Page → Add to Cart</text>
</g>
<!-- B&#45;&gt;C -->
<g id="edge2" class="edge">
<title>B&#45;&gt;C</title>
<path fill="none" stroke="#6c757d" d="M152,-287.7C152,-279.98 152,-270.71 152,-262.11"/>
<polygon fill="#6c757d" stroke="#6c757d" points="155.5,-262.1 152,-252.1 148.5,-262.1 155.5,-262.1"/>
</g>
<!-- D -->
<g id="node4" class="node">
<title>D</title>
<polygon fill="#43aa8b" stroke="#333333" points="230.5,-180 73.5,-180 73.5,-144 230.5,-144 230.5,-180"/>
<text text-anchor="middle" x="152" y="-158.9" font-family="Helvetica,sans-Serif" font-size="12.00" fill="#ffffff">Cart: Pickup or Delivery</text>
</g>
<!-- C&#45;&gt;D -->
<g id="edge3" class="edge">
<title>C&#45;&gt;D</title>
<path fill="none" stroke="#6c757d" d="M152,-215.7C152,-207.98 152,-198.71 152,-190.11"/>
<polygon fill="#6c757d" stroke="#6c757d" points="155.5,-190.1 152,-180.1 148.5,-190.1 155.5,-190.1"/>
</g>
<!-- E -->
<g id="node5" class="node">
<title>E</title>
<polygon fill="#577590" stroke="#333333" points="304,-108 0,-108 0,-72 304,-72 304,-108"/>
<text text-anchor="middle" x="152" y="-86.9" font-family="Helvetica,sans-Serif" font-size="12.00" fill="#ffffff">Checkout (Stripe: Card / Apple Pay / Google Pay)</text>
</g>
<!-- D&#45;&gt;E -->
<g id="edge4" class="edge">
<title>D&#45;&gt;E</title>
<path fill="none" stroke="#6c757d" d="M152,-143.7C152,-135.98 152,-126.71 152,-118.11"/>
<polygon fill="#6c757d" stroke="#6c757d" points="155.5,-118.1 152,-108.1 148.5,-118.1 155.5,-118.1"/>
</g>
<!-- F -->
<g id="node6" class="node">
<title>F</title>
<polygon fill="#264653" stroke="#333333" points="218,-36 86,-36 86,0 218,0 218,-36"/>
<text text-anchor="middle" x="152" y="-14.9" font-family="Helvetica,sans-Serif" font-size="12.00" fill="#ffffff">Order Confirmation</text>
</g>
<!-- E&#45;&gt;F -->
<g id="edge5" class="edge">
<title>E&#45;&gt;F</title>
<path fill="none" stroke="#6c757d" d="M152,-71.7C152,-63.98 152,-54.71 152,-46.11"/>
<polygon fill="#6c757d" stroke="#6c757d" points="155.5,-46.1 152,-36.1 148.5,-46.1 155.5,-46.1"/>
</g>
</g>
</svg>
